<svg viewBox="0 0 32 32" xmlns="http://www.w3.org/2000/svg">
    <style>@media(prefers-color-scheme:light){:root{--primary:#FFFAF0;--background:#161718}}@media(prefers-color-scheme:dark){:root{--primary:#161718;--background:#FFFAF0}}</style>
    <circle fill="var(--background)" cx="16" cy="16" r="16"/>
    <path fill="var(--primary)"  d="M11.94 14.61c-.92 2.3-1.56 4.51-1.56 6.05 0 2.24 1.31 3.25 3.81 3.28 2.3.02 4.95-.86 7.33-3.68-.62-.48-1.19-1.08-2.55-2.47-1.01 1.41-2.03 2.47-3.24 2.47q-.85.01-.84-.88c0-.83.37-2.2 1.48-4.8 2.92 0 5.6.03 6.46.1.3-1.2.77-2.48 1.17-3.67-.87.08-3.32.1-6.07.1.42-.9.94-1.91 1.46-3.05a25 25 0 0 1-4.7.4q-.62 1.27-1.26 2.65c-2.08 0-3.77-.07-4.36-.1-.17 1.21-.67 2.45-1.07 3.68a87 87 0 0 1 3.94-.08"/>
</svg>