<svg width="100%" height="100%" viewBox="0 0 100 100" xmlns="http://www.w3.org/2000/svg"><style>@media(prefers-color-scheme:light){:root{--primary-color:#FFFAF0;--background-color:#161718}}@media(prefers-color-scheme:dark){:root{--primary-color:#161718;--background-color:#FFFAF0}}</style><g transform="matrix(0.2,0,0,0.2,0,0)"><g transform="matrix(1.60129,0,0,1.60129,0,0)"><circle style="fill:var(--background-color)" cx="156.124" cy="156.124" r="156.124"/></g><g style="fill:var(--primary-color)" transform="matrix(1.34305,0,0,1.36708,-11.51,-4.02176)"><path d="M147.481,169.97C136.825,196.178 129.337,221.522 129.337,239.09C129.337,264.722 144.601,276.242 173.689,276.53C200.473,276.818 231.289,266.738 258.937,234.482C251.737,229.01 245.113,222.098 229.273,206.258C217.465,222.386 205.657,234.482 191.545,234.482C184.921,234.482 181.753,231.314 181.753,224.402C181.753,214.898 186.073,199.346 199.033,169.682C233.017,169.682 264.121,169.97 274.201,170.834C277.657,157.01 283.129,142.322 287.737,128.786C277.657,129.65 249.145,129.938 217.177,129.938C222.073,119.57 228.121,108.05 234.169,95.09C215.449,98.546 197.593,99.698 179.449,99.698C174.841,109.202 169.657,119.57 164.761,129.938C140.569,129.938 120.985,129.074 114.073,128.786C112.057,142.61 106.297,156.722 101.689,170.834C108.313,170.546 125.881,169.97 147.481,169.97Z" style="fill-rule:nonzero;"/></g></g></svg>