<?xml version="1.0" encoding="UTF-8" standalone="no"?>
<!DOCTYPE svg PUBLIC "-//W3C//DTD SVG 1.1//EN" "http://www.w3.org/Graphics/SVG/1.1/DTD/svg11.dtd">
<svg width="100%" height="100%" viewBox="0 0 32 32" version="1.1" xmlns="http://www.w3.org/2000/svg" xmlns:xlink="http://www.w3.org/1999/xlink" xml:space="preserve" xmlns:serif="http://www.serif.com/" style="fill-rule:evenodd;clip-rule:evenodd;stroke-linejoin:round;stroke-miterlimit:2;">
    <g transform="matrix(1.24753,0,0,1.24753,-3.74903,-3.9604)">
        <g transform="matrix(0.5,0,0,0.5,8,8)">
            <path d="M27,4L27,5C27,5.549 26.549,6 26,6C25.451,6 25,5.549 25,5L25,4C25,3.451 24.549,3 24,3L17,3L17,29L19,29C19.549,29 20,29.451 20,30C20,30.549 19.549,31 19,31L13,31C12.451,31 12,30.549 12,30C12,29.451 12.451,29 13,29L15,29L15,3L8,3C7.451,3 7,3.451 7,4L7,5C7,5.549 6.549,6 6,6C5.451,6 5,5.549 5,5L5,4C5,2.354 6.354,1 8,1L24,1C25.646,1 27,2.354 27,4Z" style="fill-rule:nonzero;"/>
        </g>
        <g>
            <g transform="matrix(0.12167,0,0,0.12167,15.861,2.20706)">
                <path d="M13.811,42.499C14.639,42.499 15.311,41.828 15.311,40.999L15.354,14.502C15.32,12.53 12.344,11.522 12.311,13.493L12.311,40.998C12.311,41.827 12.983,42.498 13.811,42.498L13.811,42.499Z" style="fill-rule:nonzero;"/>
                <path d="M53.774,51.567C54.139,51.567 54.505,51.434 54.795,51.166L84.335,23.739C85.749,22.387 83.772,20.217 82.294,21.541L52.754,48.968C51.748,49.837 52.464,51.617 53.775,51.567L53.774,51.567Z" style="fill-rule:nonzero;"/>
                <path d="M58.624,89.517C58.624,90.346 59.296,91.017 60.124,91.017L93.022,91.017C94.994,90.983 94.993,88.05 93.022,88.017L60.124,88.017C59.296,88.017 58.624,88.688 58.624,89.517Z" style="fill-rule:nonzero;"/>
                <path d="M60.142,70.769L83.745,63.718C85.618,63.125 84.79,60.311 82.886,60.844L59.284,67.895C57.403,68.491 58.251,71.307 60.143,70.769L60.142,70.769Z" style="fill-rule:nonzero;"/>
                <path d="M34.821,42.415C35.582,42.687 36.46,42.281 36.731,41.492L44.664,18.712C44.936,17.93 44.522,17.075 43.74,16.802C42.963,16.531 42.103,16.943 41.83,17.725L33.897,40.505C33.625,41.287 34.039,42.142 34.821,42.415Z" style="fill-rule:nonzero;"/>
            </g>
            <g>
                <g transform="matrix(0.12167,0,0,-0.12167,15.861,29.7929)">
                    <path d="M13.811,42.499C14.639,42.499 15.311,41.828 15.311,40.999L15.354,14.502C15.32,12.53 12.344,11.522 12.311,13.493L12.311,40.998C12.311,41.827 12.983,42.498 13.811,42.498L13.811,42.499Z" style="fill-rule:nonzero;"/>
                </g>
                <g transform="matrix(0.12167,0,0,-0.12167,15.861,29.7929)">
                    <path d="M53.774,51.567C54.139,51.567 54.505,51.434 54.795,51.166L84.335,23.739C85.749,22.387 83.772,20.217 82.294,21.541L52.754,48.968C51.748,49.837 52.464,51.617 53.775,51.567L53.774,51.567Z" style="fill-rule:nonzero;"/>
                </g>
                <g transform="matrix(0.12167,0,0,-0.12167,15.861,29.7929)">
                    <path d="M58.624,89.517C58.624,90.346 59.296,91.017 60.124,91.017L93.022,91.017C94.994,90.983 94.993,88.05 93.022,88.017L60.124,88.017C59.296,88.017 58.624,88.688 58.624,89.517Z" style="fill-rule:nonzero;"/>
                </g>
                <g transform="matrix(0.12167,0,0,-0.12167,15.861,29.7929)">
                    <path d="M60.142,70.769L83.745,63.718C85.618,63.125 84.79,60.311 82.886,60.844L59.284,67.895C57.403,68.491 58.251,71.307 60.143,70.769L60.142,70.769Z" style="fill-rule:nonzero;"/>
                </g>
                <g transform="matrix(0.12167,0,0,-0.12167,15.861,29.7929)">
                    <path d="M34.821,42.415C35.582,42.687 36.46,42.281 36.731,41.492L44.664,18.712C44.936,17.93 44.522,17.075 43.74,16.802C42.963,16.531 42.103,16.943 41.83,17.725L33.897,40.505C33.625,41.287 34.039,42.142 34.821,42.415Z" style="fill-rule:nonzero;"/>
                </g>
            </g>
            <g transform="matrix(0.138101,2.01228e-18,-2.01228e-18,-0.12167,15.6053,27.074)">
                <path d="M58.624,89.517C58.624,90.346 59.296,91.017 60.124,91.017L93.022,91.017C94.994,90.983 94.993,88.05 93.022,88.017L60.124,88.017C59.296,88.017 58.624,88.688 58.624,89.517Z" style="fill-rule:nonzero;"/>
            </g>
        </g>
        <g>
            <g transform="matrix(-0.12167,0,0,0.12167,16.139,2.20706)">
                <path d="M13.811,42.499C14.639,42.499 15.311,41.828 15.311,40.999L15.354,14.502C15.32,12.53 12.344,11.522 12.311,13.493L12.311,40.998C12.311,41.827 12.983,42.498 13.811,42.498L13.811,42.499Z" style="fill-rule:nonzero;"/>
                <path d="M53.774,51.567C54.139,51.567 54.505,51.434 54.795,51.166L84.335,23.739C85.749,22.387 83.772,20.217 82.294,21.541L52.754,48.968C51.748,49.837 52.464,51.617 53.775,51.567L53.774,51.567Z" style="fill-rule:nonzero;"/>
                <path d="M58.624,89.517C58.624,90.346 59.296,91.017 60.124,91.017L93.022,91.017C94.994,90.983 94.993,88.05 93.022,88.017L60.124,88.017C59.296,88.017 58.624,88.688 58.624,89.517Z" style="fill-rule:nonzero;"/>
                <path d="M60.142,70.769L83.745,63.718C85.618,63.125 84.79,60.311 82.886,60.844L59.284,67.895C57.403,68.491 58.251,71.307 60.143,70.769L60.142,70.769Z" style="fill-rule:nonzero;"/>
                <path d="M34.821,42.415C35.582,42.687 36.46,42.281 36.731,41.492L44.664,18.712C44.936,17.93 44.522,17.075 43.74,16.802C42.963,16.531 42.103,16.943 41.83,17.725L33.897,40.505C33.625,41.287 34.039,42.142 34.821,42.415Z" style="fill-rule:nonzero;"/>
            </g>
            <g transform="matrix(0.138101,2.01228e-18,-2.01228e-18,-0.12167,-5.09088,26.8915)">
                <path d="M58.624,89.517C58.624,90.346 59.296,91.017 60.124,91.017L93.022,91.017C94.994,90.983 94.993,88.05 93.022,88.017L60.124,88.017C59.296,88.017 58.624,88.688 58.624,89.517Z" style="fill-rule:nonzero;"/>
            </g>
            <g transform="matrix(-0.12167,0,0,-0.12167,16.139,29.7929)">
                <path d="M13.811,42.499C14.639,42.499 15.311,41.828 15.311,40.999L15.354,14.502C15.32,12.53 12.344,11.522 12.311,13.493L12.311,40.998C12.311,41.827 12.983,42.498 13.811,42.498L13.811,42.499Z" style="fill-rule:nonzero;"/>
                <path d="M53.774,51.567C54.139,51.567 54.505,51.434 54.795,51.166L84.335,23.739C85.749,22.387 83.772,20.217 82.294,21.541L52.754,48.968C51.748,49.837 52.464,51.617 53.775,51.567L53.774,51.567Z" style="fill-rule:nonzero;"/>
                <path d="M58.624,89.517C58.624,90.346 59.296,91.017 60.124,91.017L93.022,91.017C94.994,90.983 94.993,88.05 93.022,88.017L60.124,88.017C59.296,88.017 58.624,88.688 58.624,89.517Z" style="fill-rule:nonzero;"/>
                <path d="M60.142,70.769L83.745,63.718C85.618,63.125 84.79,60.311 82.886,60.844L59.284,67.895C57.403,68.491 58.251,71.307 60.143,70.769L60.142,70.769Z" style="fill-rule:nonzero;"/>
                <path d="M34.821,42.415C35.582,42.687 36.46,42.281 36.731,41.492L44.664,18.712C44.936,17.93 44.522,17.075 43.74,16.802C42.963,16.531 42.103,16.943 41.83,17.725L33.897,40.505C33.625,41.287 34.039,42.142 34.821,42.415Z" style="fill-rule:nonzero;"/>
            </g>
        </g>
    </g>
</svg>
