<svg viewBox="0 0 500 500" xmlns="http://www.w3.org/2000/svg" xml:space="preserve" style="fill-rule:evenodd;clip-rule:evenodd;stroke-linejoin:round;stroke-miterlimit:2"><circle cx="156.124" cy="156.124" r="156.124" style="fill:#fafad2" transform="scale(1.60129)"/><path d="M147.481 169.97c-10.656 26.208-18.144 51.552-18.144 69.12 0 25.632 15.264 37.152 44.352 37.44 26.784.288 57.6-9.792 85.248-42.048-7.2-5.472-13.824-12.384-29.664-28.224-11.808 16.128-23.616 28.224-37.728 28.224-6.624 0-9.792-3.168-9.792-10.08 0-9.504 4.32-25.056 17.28-54.72 33.984 0 65.088.288 75.168 1.152 3.456-13.824 8.928-28.512 13.536-42.048-10.08.864-38.592 1.152-70.56 1.152 4.896-10.368 10.944-21.888 16.992-34.848-18.72 3.456-36.576 4.608-54.72 4.608-4.608 9.504-9.792 19.872-14.688 30.24-24.192 0-43.776-.864-50.688-1.152-2.016 13.824-7.776 27.936-12.384 42.048 6.624-.288 24.192-.864 45.792-.864Z" style="fill:#222;fill-rule:nonzero" transform="matrix(1.34305 0 0 1.36708 -11.51 -4.022)"/></svg>
